<?xml version="1.0" standalone="no"?>
<!DOCTYPE svg PUBLIC "-//W3C//DTD SVG 20010904//EN"
 "http://www.w3.org/TR/2001/REC-SVG-20010904/DTD/svg10.dtd">
<svg version="1.0" xmlns="http://www.w3.org/2000/svg"
 width="345.000000pt" height="345.000000pt" viewBox="0 0 345.000000 345.000000"
 preserveAspectRatio="xMidYMid meet">
<metadata>
Created by potrace 1.14, written by Peter Selinger 2001-2017
</metadata>
<g transform="translate(0.000000,345.000000) scale(0.100000,-0.100000)"
fill="#000000" stroke="none">
<path d="M937 2836 c-236 -42 -441 -149 -607 -316 -257 -259 -370 -610 -315
-977 27 -179 122 -393 235 -528 233 -279 569 -429 924 -412 181 9 382 68 514
151 22 14 43 21 48 16 20 -20 194 -100 259 -119 213 -64 448 -66 653 -4 31 9
59 18 62 18 17 5 75 31 135 62 247 126 454 366 544 632 57 167 74 380 45 553
-71 413 -363 754 -757 882 -131 43 -219 55 -372 51 -142 -3 -155 -4 -259 -31
-94 -24 -276 -103 -310 -134 -4 -5 -34 7 -66 26 -78 45 -190 89 -291 114 -110
27 -333 35 -442 16z m323 -91 c82 -10 215 -51 300 -92 l76 -36 -86 -86 c-224
-224 -333 -480 -339 -791 -5 -320 132 -640 363 -847 32 -28 56 -55 53 -60 -7
-12 -121 -63 -202 -91 -103 -36 -354 -57 -445 -38 -14 3 -41 9 -60 12 -55 9
-159 44 -235 79 -207 95 -401 291 -496 500 -75 167 -109 382 -86 555 52 405
333 739 723 860 81 25 101 29 189 36 39 4 71 8 73 9 4 3 115 -3 172 -10z
m1235 -5 c389 -59 726 -368 825 -757 28 -106 33 -153 32 -273 -1 -180 -51
-355 -147 -520 -92 -156 -282 -326 -443 -397 -31 -13 -66 -29 -77 -34 -35 -15
-168 -48 -225 -55 -141 -17 -324 1 -450 43 -56 19 -190 80 -190 87 0 3 37 42
83 88 191 191 287 384 332 673 7 44 7 198 0 259 -28 254 -164 523 -350 694
-36 33 -65 62 -65 66 0 3 22 17 50 31 110 56 245 94 360 102 41 3 76 7 78 8 5
5 112 -4 187 -15z m-709 -232 c144 -129 232 -257 297 -433 31 -85 44 -133 53
-205 33 -268 -28 -519 -178 -737 -54 -79 -208 -233 -233 -233 -21 0 -157 131
-216 209 -296 391 -265 959 72 1318 57 61 130 123 145 123 7 0 33 -19 60 -42z"/>
<path d="M709 2066 c-93 -33 -160 -107 -193 -212 -19 -58 -26 -180 -15 -239
15 -75 17 -83 39 -130 51 -112 160 -173 291 -162 54 5 115 23 137 42 5 4 -39
75 -46 75 -4 0 -29 -7 -56 -15 -106 -32 -187 8 -238 120 -19 42 -23 66 -22
155 0 87 4 114 23 156 39 90 108 136 191 128 46 -5 65 -14 114 -57 l29 -26 28
22 c43 34 44 49 7 81 -79 67 -202 94 -289 62z"/>
<path d="M2669 2066 c-128 -46 -204 -166 -213 -335 -8 -175 52 -314 165 -376
49 -27 62 -30 144 -29 61 0 102 6 128 17 20 10 37 19 37 22 0 9 -42 75 -48 75
-4 0 -27 -6 -52 -14 -110 -33 -191 7 -241 119 -34 75 -36 220 -4 299 29 70 57
103 110 127 69 30 137 13 209 -53 18 -17 21 -16 56 15 l37 32 -36 33 c-78 72
-202 101 -292 68z"/>
<path d="M1652 2036 c-50 -17 -98 -61 -122 -110 -23 -49 -24 -88 0 -92 8 -1
27 -5 41 -9 24 -6 28 -3 39 32 26 81 92 117 171 94 70 -21 88 -101 37 -166
-12 -15 -62 -57 -112 -94 -164 -122 -196 -167 -199 -284 l-2 -72 233 -3 232
-2 0 43 0 43 -171 -1 c-94 0 -176 3 -182 7 -9 5 -5 21 13 55 19 37 50 67 137
133 150 114 183 159 183 251 0 109 -78 181 -199 185 -36 1 -81 -3 -99 -10z"/>
</g>
</svg>
