<svg width="825" height="466.89" viewBox="0 0 218.28 123.53" xmlns="http://www.w3.org/2000/svg"><path d="M-57.349 70.767v61.766c11.261-18.751 27.445-34.515 46.485-45.28S30.028 70.749 51.9 70.767c21.836.019 43.642 5.776 62.642 16.539 18.999 10.763 35.148 26.507 46.391 45.227V70.767zm218.28 61.766c-11.242 18.72-27.391 34.464-46.391 45.227-18.999 10.763-40.806 16.52-62.642 16.539h109.03zm-109.03 61.766c-21.872.019-43.724-5.721-62.764-16.486-19.04-10.765-35.224-26.529-46.485-45.28v61.766z" fill="#e6e6e6" style="paint-order:stroke fill markers" transform="translate(57.349 -70.767)"/></svg>
